<?xml version="1.0" standalone="no"?>
<!DOCTYPE svg PUBLIC "-//W3C//DTD SVG 20010904//EN"
 "http://www.w3.org/TR/2001/REC-SVG-20010904/DTD/svg10.dtd">
<svg version="1.0" xmlns="http://www.w3.org/2000/svg"
 width="1744.000000pt" height="681.000000pt" viewBox="0 0 1744.000000 681.000000"
 preserveAspectRatio="xMidYMid meet">

<g transform="translate(0.000000,681.000000) scale(0.100000,-0.100000)"
fill="#000000" stroke="none">
<path d="M2214 6015 c0 -71 1 -99 3 -62 2 37 2 96 0 130 -2 34 -3 4 -3 -68z"/>
<path d="M1562 6018 c3 -84 5 -93 23 -95 11 -2 14 0 8 3 -9 4 -13 32 -13 89 0
57 4 85 13 88 6 3 2 6 -11 6 -22 1 -23 -1 -20 -91z"/>
<path d="M1818 6104 c8 -4 12 -32 12 -89 0 -57 -4 -85 -12 -89 -7 -3 -4 -5 7
-3 18 2 20 10 20 92 0 82 -2 90 -20 92 -11 2 -14 0 -7 -3z"/>
<path d="M1120 6089 c0 -4 7 -9 15 -13 23 -8 21 -112 -2 -125 -14 -8 -8 -10
27 -10 40 0 42 2 23 11 -20 9 -23 19 -23 65 0 46 3 55 23 63 26 10 24 11 -26
13 -20 1 -37 -1 -37 -4z"/>
<path d="M1677 6083 c-13 -13 -7 -21 13 -16 18 5 20 0 20 -49 0 -47 -3 -57
-22 -66 -20 -9 -18 -11 22 -11 35 0 41 2 28 10 -14 8 -18 24 -18 74 0 56 -2
65 -18 65 -10 0 -22 -3 -25 -7z"/>
<path d="M1273 6053 c-21 -4 -23 -10 -23 -61 0 -63 17 -61 22 3 2 32 7 41 25
43 18 3 23 -3 28 -35 11 -67 13 -69 14 -17 1 48 -11 75 -33 73 -6 -1 -21 -4
-33 -6z"/>
<path d="M1960 6040 c0 -13 5 -20 13 -17 6 2 12 10 12 17 0 7 -6 15 -12 18 -8
2 -13 -5 -13 -18z"/>
<path d="M1960 5955 c0 -8 7 -15 15 -15 8 0 15 7 15 15 0 8 -7 15 -15 15 -8 0
-15 -7 -15 -15z"/>
</g>
</svg>
